<?xml version="1.0" encoding="utf-8"?>
<!-- Generator: Adobe Illustrator 26.0.1, SVG Export Plug-In . SVG Version: 6.00 Build 0)  -->
<!DOCTYPE svg PUBLIC "-//W3C//DTD SVG 1.0//EN" "http://www.w3.org/TR/2001/REC-SVG-20010904/DTD/svg10.dtd" [
	<!ENTITY ns_extend "http://ns.adobe.com/Extensibility/1.0/">
	<!ENTITY ns_ai "http://ns.adobe.com/AdobeIllustrator/10.0/">
	<!ENTITY ns_graphs "http://ns.adobe.com/Graphs/1.0/">
	<!ENTITY ns_vars "http://ns.adobe.com/Variables/1.0/">
	<!ENTITY ns_imrep "http://ns.adobe.com/ImageReplacement/1.0/">
	<!ENTITY ns_sfw "http://ns.adobe.com/SaveForWeb/1.0/">
	<!ENTITY ns_custom "http://ns.adobe.com/GenericCustomNamespace/1.0/">
	<!ENTITY ns_adobe_xpath "http://ns.adobe.com/XPath/1.0/">
]>
<svg version="1.0" id="Layer_1" xmlns:x="&ns_extend;" xmlns:i="&ns_ai;" xmlns:graph="&ns_graphs;"
	 xmlns="http://www.w3.org/2000/svg" xmlns:xlink="http://www.w3.org/1999/xlink" x="0px" y="0px" viewBox="0 0 2000 2000"
	 enable-background="new 0 0 2000 2000" xml:space="preserve">
<metadata>
	<sfw  xmlns="&ns_sfw;">
		<slices></slices>
		<sliceSourceBounds  bottomLeftOrigin="true" height="192" width="894.6" x="714" y="1037.7"></sliceSourceBounds>
	</sfw>
</metadata>
<g>
	<linearGradient id="SVGID_1_" gradientUnits="userSpaceOnUse" x1="984.442" y1="864.9362" x2="1421.4229" y2="864.9362">
		<stop  offset="0" style="stop-color:#541D4D"/>
		<stop  offset="1" style="stop-color:#2B0045"/>
	</linearGradient>
	<path fill="url(#SVGID_1_)" d="M1099.8,888.6c-4.3,7.9-8.1,14.8-11.9,21.8c-8.3,15.2-16.5,30.4-24.9,45.6c-0.9,1.6-3,3.4-4.6,3.4
		c-24,0.2-48,0.1-72,0c-0.3,0-0.6-0.2-1.9-0.6c25.5-47,51-93.7,76.7-141.1C1074.1,841.5,1086.7,864.6,1099.8,888.6
		c21.6-39.6,42.8-78.5,64.4-118.2c13,23.8,25.5,46.9,38.6,70.9c13.1-24,25.7-47.2,38.6-70.9c21.5,39.5,42.6,78.3,64.4,118.3
		c13-23.8,25.6-46.9,38.7-70.9c25.8,47.4,51.2,94.1,76.9,141.5c-2.5,0.1-4.1,0.3-5.7,0.3c-22.2,0-44.3-0.1-66.5,0.1
		c-3.7,0-5.6-1.3-7.3-4.5c-10.9-20.4-22-40.7-33.1-61c-0.8-1.6-1.8-3.1-3.2-5.3c-13,23.8-25.6,46.9-38.5,70.7
		c-21.5-39.5-42.6-78.3-64.4-118.3c-21.7,39.8-42.9,78.8-64.4,118.3C1125.5,935.7,1112.9,912.5,1099.8,888.6z"/>
	
		<linearGradient id="SVGID_00000179622874782148892540000011840988821912734113_" gradientUnits="userSpaceOnUse" x1="853.7009" y1="892.5983" x2="988.8521" y2="892.5983">
		<stop  offset="0" style="stop-color:#541D4D"/>
		<stop  offset="1" style="stop-color:#2B0045"/>
	</linearGradient>
	<path fill="url(#SVGID_00000179622874782148892540000011840988821912734113_)" d="M854.4,822.9c15.2,0,30.1,0,45.7,0
		c0,2.1,0,3.9,0,5.6c0,22.3,0,44.6,0,67c0,2.5,0.1,5,0.5,7.5c2.3,14.8,13.6,22,28,17.9c7.6-2.1,12.6-8.1,13.4-16.9
		c0.5-6.3,0.5-12.6,0.5-19c0.1-18.7,0-37.3,0-56c0-2,0-3.9,0-6.2c15.7,0,30.8,0,46.1,0c0.1,1.8,0.2,3.2,0.2,4.7
		c0,23.2,0.2,46.3-0.1,69.5c-0.1,7.1-0.7,14.4-2.3,21.3c-4.9,21.7-18.5,35.3-40,40.7c-15.9,4.1-32,4.2-48,0.7
		c-26.9-5.9-43-24.5-44.1-53.1c-1.1-27.4-0.3-55-0.3-82.5C853.9,823.9,854.1,823.6,854.4,822.9z"/>
	
		<linearGradient id="SVGID_00000054262520406895193020000001332546803815833519_" gradientUnits="userSpaceOnUse" x1="714.0231" y1="891.0299" x2="844.1737" y2="891.0299">
		<stop  offset="0" style="stop-color:#541D4D"/>
		<stop  offset="1" style="stop-color:#2B0045"/>
	</linearGradient>
	<path fill="url(#SVGID_00000054262520406895193020000001332546803815833519_)" d="M714,938.9c8.1-9.7,16-19.1,24.1-28.8
		c1.3,0.8,2.4,1.4,3.4,2.1c13.1,9.1,27.8,13.3,43.7,13.7c2.8,0.1,5.8-0.1,8.3-1.1c1.8-0.7,3.8-3,4.1-4.8c0.2-1.5-1.7-4.3-3.2-4.8
		c-5.6-2-11.4-3.3-17.2-5c-10.8-3.2-22-5.6-32.3-9.9c-34-14-27-54.1-6.6-68.4c9.1-6.4,19.2-10,30.1-11c22.9-2.1,44.9,0.5,65,12.7
		c2.5,1.5,4.9,3.4,7.6,5.2c-7.5,10.4-14.8,20.5-22.2,30.8c-10.6-7.2-21.7-11.7-34-12.9c-3.9-0.4-8-0.4-11.9,0.4
		c-1.9,0.4-4.5,2.9-4.7,4.7c-0.2,1.8,1.9,4.9,3.7,5.5c6.3,2.1,12.8,3.3,19.2,5.1c9.4,2.6,19.1,4.8,28.1,8.4
		c13.7,5.5,23.6,14.9,24.8,30.9c1.3,17.5-5,31.3-20,40.7c-10.9,6.8-23.1,9.3-35.7,9.6c-25,0.6-48.7-3.8-69.5-19
		C717.2,941.6,715.7,940.3,714,938.9z"/>
	
		<linearGradient id="SVGID_00000111910808790926204750000017067239087276637360_" gradientUnits="userSpaceOnUse" x1="1483.1442" y1="890.9232" x2="1608.5975" y2="890.9232">
		<stop  offset="0" style="stop-color:#541D4D"/>
		<stop  offset="1" style="stop-color:#2B0045"/>
	</linearGradient>
	<path fill="url(#SVGID_00000111910808790926204750000017067239087276637360_)" d="M1523.2,861.1c-13.9,0-26.8,0-40,0
		c0-12.8,0-25.3,0-38.1c41.8,0,83.5,0,125.5,0c0,12.7,0,25.1,0,38.1c-13.2,0-26.2,0-39.7,0c0,32.8,0,65.1,0,97.8
		c-15.3,0-30.2,0-45.7,0C1523.2,926.6,1523.2,894.2,1523.2,861.1z"/>
	
		<linearGradient id="SVGID_00000103961004664942510940000000157394168297164186_" gradientUnits="userSpaceOnUse" x1="1426.2177" y1="890.7817" x2="1471.533" y2="890.7817">
		<stop  offset="0" style="stop-color:#541D4D"/>
		<stop  offset="1" style="stop-color:#2B0045"/>
	</linearGradient>
	<path fill="url(#SVGID_00000103961004664942510940000000157394168297164186_)" d="M1471.5,959.1c-15,0-29.8,0-45.2,0
		c0-1.9,0-3.5,0-5.1c0-42,0.1-83.9-0.1-125.9c0-4.4,1.1-5.7,5.5-5.6c13.1,0.3,26.3,0.1,39.8,0.1
		C1471.5,868.2,1471.5,913.4,1471.5,959.1z"/>
</g>
</svg>
